<svg width="32" height="32" viewBox="0 0 32 32" fill="none" xmlns="http://www.w3.org/2000/svg">
<path d="M5.47408 22.0832L4.64409 21.5255L4.64409 21.5255L5.47408 22.0832ZM7.02472 17.1134L6.02472 17.1025V17.1134H7.02472ZM7.05726 14.1085L8.05726 14.1194V14.1085H7.05726ZM26.5342 22.1074L27.3747 21.5657L27.3747 21.5657L26.5342 22.1074ZM25.0419 17.1134L24.0419 17.102V17.1134H25.0419ZM25.0744 14.2574L26.0744 14.2688V14.2574H25.0744ZM12.4444 27C11.8921 27 11.4444 27.4477 11.4444 28C11.4444 28.5523 11.8921 29 12.4444 29V27ZM19.5555 29C20.1078 29 20.5555 28.5523 20.5555 28C20.5555 27.4477 20.1078 27 19.5555 27V29ZM6.30407 22.641C7.17358 21.3472 8.02472 19.434 8.02472 17.1134H6.02472C6.02472 18.9402 5.35267 20.4711 4.64409 21.5255L6.30407 22.641ZM8.02466 17.1242L8.0572 14.1194L6.05732 14.0977L6.02477 17.1025L8.02466 17.1242ZM27.3747 21.5657C26.6951 20.5111 26.0419 18.9651 26.0419 17.1134H24.0419C24.0419 19.4375 24.8593 21.3545 25.6936 22.6491L27.3747 21.5657ZM26.0418 17.1248L26.0744 14.2688L24.0745 14.246L24.0419 17.102L26.0418 17.1248ZM26.0744 14.2574C26.0744 8.15882 21.6756 3 16 3V5C20.3477 5 24.0744 9.026 24.0744 14.2574H26.0744ZM25.9911 24.5C26.8629 24.5 27.3499 23.8225 27.5293 23.3463C27.7171 22.8474 27.7523 22.1515 27.3747 21.5657L25.6936 22.6491C25.6641 22.6033 25.6659 22.5769 25.6666 22.5893C25.6672 22.6018 25.6645 22.6231 25.6576 22.6415C25.6496 22.6626 25.651 22.6425 25.6924 22.6057C25.7416 22.5621 25.8465 22.5 25.9911 22.5V24.5ZM8.05726 14.1085C8.05726 8.95934 11.725 5 16 5V3C10.3971 3 6.05726 8.09215 6.05726 14.1085H8.05726ZM6.01016 22.5C6.15816 22.5 6.26404 22.5646 6.31209 22.608C6.35222 22.6443 6.35196 22.6625 6.34311 22.6383C6.33532 22.617 6.33261 22.5931 6.33346 22.5793C6.33431 22.5653 6.33613 22.5933 6.30407 22.641L4.64409 21.5255C4.2489 22.1135 4.2808 22.8215 4.46448 23.3244C4.63914 23.8026 5.12465 24.5 6.01016 24.5V22.5ZM25.9911 22.5H6.01016V24.5H25.9911V22.5ZM12.4444 29H19.5555V27H12.4444V29Z" fill="black"/>
</svg>
