<svg width="32" height="32" viewBox="0 0 32 32" fill="none" xmlns="http://www.w3.org/2000/svg">
<path d="M5.47426 22.0832L4.64427 21.5255L4.64427 21.5255L5.47426 22.0832ZM7.0249 17.1134L6.0249 17.1025V17.1134H7.0249ZM7.05745 14.1085L8.05745 14.1194V14.1085H7.05745ZM26.5343 22.1074L27.3749 21.5657L27.3749 21.5657L26.5343 22.1074ZM25.0421 17.1134L24.0421 17.102V17.1134H25.0421ZM25.0746 14.2574L26.0746 14.2688V14.2574H25.0746ZM12.4446 27C11.8923 27 11.4446 27.4477 11.4446 28C11.4446 28.5523 11.8923 29 12.4446 29V27ZM19.5557 29C20.108 29 20.5557 28.5523 20.5557 28C20.5557 27.4477 20.108 27 19.5557 27V29ZM6.30425 22.641C7.17377 21.3472 8.0249 19.434 8.0249 17.1134H6.0249C6.0249 18.9402 5.35285 20.4711 4.64427 21.5255L6.30425 22.641ZM8.02484 17.1242L8.05739 14.1194L6.0575 14.0977L6.02496 17.1025L8.02484 17.1242ZM27.3749 21.5657C26.6953 20.5111 26.0421 18.9651 26.0421 17.1134H24.0421C24.0421 19.4375 24.8595 21.3545 25.6938 22.6491L27.3749 21.5657ZM26.042 17.1248L26.0745 14.2688L24.0747 14.246L24.0421 17.102L26.042 17.1248ZM26.0746 14.2574C26.0746 8.15882 21.6758 3 16.0002 3V5C20.3479 5 24.0746 9.026 24.0746 14.2574H26.0746ZM25.9913 24.5C26.863 24.5 27.3501 23.8225 27.5294 23.3463C27.7173 22.8474 27.7524 22.1515 27.3749 21.5657L25.6938 22.6491C25.6643 22.6033 25.6661 22.5769 25.6667 22.5893C25.6674 22.6018 25.6647 22.6231 25.6578 22.6415C25.6498 22.6626 25.6512 22.6425 25.6926 22.6057C25.7418 22.5621 25.8466 22.5 25.9913 22.5V24.5ZM8.05745 14.1085C8.05745 8.95934 11.7252 5 16.0002 5V3C10.3973 3 6.05745 8.09215 6.05745 14.1085H8.05745ZM6.01034 22.5C6.15834 22.5 6.26422 22.5646 6.31227 22.608C6.3524 22.6443 6.35214 22.6625 6.34329 22.6383C6.3355 22.617 6.33279 22.5931 6.33364 22.5793C6.3345 22.5653 6.33632 22.5933 6.30425 22.641L4.64427 21.5255C4.24908 22.1135 4.28098 22.8215 4.46467 23.3244C4.63932 23.8026 5.12484 24.5 6.01034 24.5V22.5ZM25.9913 22.5H6.01034V24.5H25.9913V22.5ZM12.4446 29H19.5557V27H12.4446V29Z" fill="black"/>
</svg>
