<svg width="24" height="24" viewBox="0 0 24 24" fill="none" xmlns="http://www.w3.org/2000/svg">
<path d="M2 11.9999C2.0005 9.80751 2.72148 7.67603 4.05199 5.93351C5.38249 4.19098 7.24877 2.93399 9.3636 2.35599C11.4784 1.77798 13.7246 1.911 15.7565 2.73457C17.7883 3.55813 19.4932 5.0266 20.6087 6.91398C21.7243 8.80136 22.1886 11.003 21.9304 13.1802C21.6721 15.3573 20.7055 17.3892 19.1794 18.9633C17.6533 20.5373 15.6521 21.5661 13.484 21.8915C11.3159 22.2168 9.10092 21.8207 7.18 20.7639L3.292 21.9479C3.11858 22.0007 2.93407 22.0054 2.75819 21.9615C2.58231 21.9175 2.42168 21.8266 2.2935 21.6984C2.16531 21.5702 2.07438 21.4096 2.03043 21.2337C1.98648 21.0578 1.99117 20.8733 2.044 20.6999L3.228 16.8059C2.42153 15.3325 1.9992 13.6796 2 11.9999ZM8 10.9999C8 11.2651 8.10536 11.5195 8.29289 11.707C8.48043 11.8946 8.73478 11.9999 9 11.9999H15C15.2652 11.9999 15.5196 11.8946 15.7071 11.707C15.8946 11.5195 16 11.2651 16 10.9999C16 10.7347 15.8946 10.4803 15.7071 10.2928C15.5196 10.1053 15.2652 9.99991 15 9.99991H9C8.73478 9.99991 8.48043 10.1053 8.29289 10.2928C8.10536 10.4803 8 10.7347 8 10.9999ZM9 13.9999C8.73478 13.9999 8.48043 14.1053 8.29289 14.2928C8.10536 14.4803 8 14.7347 8 14.9999C8 15.2651 8.10536 15.5195 8.29289 15.707C8.48043 15.8946 8.73478 15.9999 9 15.9999H13C13.2652 15.9999 13.5196 15.8946 13.7071 15.707C13.8946 15.5195 14 15.2651 14 14.9999C14 14.7347 13.8946 14.4803 13.7071 14.2928C13.5196 14.1053 13.2652 13.9999 13 13.9999H9Z" fill="#FF7676"/>
</svg>
