<svg width="33" height="27" viewBox="0 0 33 27" fill="none" xmlns="http://www.w3.org/2000/svg">
<path fill-rule="evenodd" clip-rule="evenodd" d="M9.6705 0.347224C14.6139 -0.0251097 19.5792 -0.000586803 24.5187 0.420557L27.496 0.673557C28.5883 0.766966 29.6174 1.22485 30.4181 1.97365C31.2187 2.72244 31.7444 3.71866 31.9107 4.80222L32.0977 6.02872C32.7338 10.1866 32.6744 14.4212 31.9217 18.5596C31.7424 19.5494 31.221 20.4448 30.4485 21.0892C29.6761 21.7336 28.7018 22.0861 27.6958 22.0851H11.2398C10.8603 22.0851 10.4882 22.1786 10.1545 22.3582L2.98433 26.2119C2.7748 26.3245 2.53966 26.3808 2.30186 26.3753C2.06407 26.3698 1.83176 26.3028 1.62764 26.1807C1.42351 26.0586 1.25455 25.8856 1.13727 25.6787C1.01999 25.4717 0.958389 25.2379 0.958496 25.0001V9.38556C0.958968 7.10651 1.8204 4.91176 3.37029 3.24085C4.92017 1.56994 7.04407 0.54623 9.31666 0.374724L9.6705 0.347224ZM9.66683 9.41672C9.05904 9.41672 8.47615 9.65817 8.04638 10.0879C7.61661 10.5177 7.37516 11.1006 7.37516 11.7084C7.37516 12.3162 7.61661 12.8991 8.04638 13.3288C8.47615 13.7586 9.05904 14.0001 9.66683 14.0001C10.2746 14.0001 10.8575 13.7586 11.2873 13.3288C11.7171 12.8991 11.9585 12.3162 11.9585 11.7084C11.9585 11.1006 11.7171 10.5177 11.2873 10.0879C10.8575 9.65817 10.2746 9.41672 9.66683 9.41672ZM17.0002 9.41672C16.3924 9.41672 15.8095 9.65817 15.3797 10.0879C14.9499 10.5177 14.7085 11.1006 14.7085 11.7084C14.7085 12.3162 14.9499 12.8991 15.3797 13.3288C15.8095 13.7586 16.3924 14.0001 17.0002 14.0001C17.6079 14.0001 18.1908 13.7586 18.6206 13.3288C19.0504 12.8991 19.2918 12.3162 19.2918 11.7084C19.2918 11.1006 19.0504 10.5177 18.6206 10.0879C18.1908 9.65817 17.6079 9.41672 17.0002 9.41672ZM22.0418 11.7084C22.0418 11.1006 22.2833 10.5177 22.713 10.0879C23.1428 9.65817 23.7257 9.41672 24.3335 9.41672C24.9413 9.41672 25.5242 9.65817 25.9539 10.0879C26.3837 10.5177 26.6252 11.1006 26.6252 11.7084C26.6252 12.3162 26.3837 12.8991 25.9539 13.3288C25.5242 13.7586 24.9413 14.0001 24.3335 14.0001C23.7257 14.0001 23.1428 13.7586 22.713 13.3288C22.2833 12.8991 22.0418 12.3162 22.0418 11.7084Z" fill="#B1B1B1"/>
</svg>
