<svg width="24" height="24" viewBox="0 0 20 20" fill="none" xmlns="http://www.w3.org/2000/svg">
<path fill-rule="evenodd" clip-rule="evenodd" d="M9.99999 11.7684L14.4192 16.1876C14.6536 16.4221 14.9717 16.5538 15.3033 16.5538C15.6349 16.5538 15.953 16.4221 16.1875 16.1876C16.422 15.9531 16.5537 15.6351 16.5537 15.3034C16.5537 14.9718 16.422 14.6538 16.1875 14.4193L11.7667 10.0001L16.1867 5.58092C16.3027 5.46481 16.3948 5.32698 16.4575 5.1753C16.5203 5.02361 16.5526 4.86105 16.5526 4.69688C16.5526 4.53271 16.5202 4.37016 16.4573 4.21851C16.3945 4.06685 16.3023 3.92906 16.1862 3.81301C16.0701 3.69695 15.9323 3.6049 15.7806 3.54212C15.6289 3.47933 15.4664 3.44703 15.3022 3.44707C15.138 3.44711 14.9755 3.47948 14.8238 3.54234C14.6722 3.6052 14.5344 3.69731 14.4183 3.81343L9.99999 8.23259L5.58082 3.81343C5.46557 3.69398 5.32768 3.59869 5.17521 3.53311C5.02273 3.46753 4.85872 3.43297 4.69275 3.43145C4.52678 3.42993 4.36217 3.46148 4.20852 3.52426C4.05487 3.58704 3.91526 3.67979 3.79784 3.7971C3.68042 3.91441 3.58754 4.05393 3.52461 4.20752C3.46169 4.36111 3.42998 4.52569 3.43135 4.69167C3.43271 4.85764 3.46712 5.02168 3.53255 5.17422C3.59799 5.32675 3.69315 5.46473 3.81249 5.58009L8.23332 10.0001L3.81332 14.4201C3.69399 14.5355 3.59883 14.6734 3.53339 14.826C3.46795 14.9785 3.43354 15.1425 3.43218 15.3085C3.43082 15.4745 3.46252 15.6391 3.52545 15.7927C3.58837 15.9463 3.68125 16.0858 3.79867 16.2031C3.91609 16.3204 4.0557 16.4131 4.20935 16.4759C4.363 16.5387 4.52761 16.5703 4.69359 16.5687C4.85956 16.5672 5.02357 16.5327 5.17604 16.4671C5.32851 16.4015 5.4664 16.3062 5.58165 16.1868L9.99999 11.7684Z" fill="black"/>
</svg>
