<svg width="23" height="23" viewBox="0 0 23 23" fill="none" xmlns="http://www.w3.org/2000/svg">
<path fill-rule="evenodd" clip-rule="evenodd" d="M14.1421 2.51183C14.9836 1.67028 16.125 1.19751 17.3151 1.19751C18.5053 1.19751 19.6466 1.67028 20.4882 2.51183C21.3297 3.35337 21.8025 4.49475 21.8025 5.68487C21.8025 6.87499 21.3297 8.01637 20.4882 8.85791L11.3974 17.9487C10.878 18.4681 10.5733 18.7728 10.2321 19.0383C9.83087 19.3526 9.39962 19.6194 8.93834 19.8385C8.54926 20.0235 8.1391 20.1605 7.44335 20.3924L4.25018 21.4562L3.4816 21.713C3.17591 21.815 2.84785 21.8299 2.53419 21.7559C2.22053 21.682 1.93368 21.5221 1.7058 21.2942C1.47793 21.0663 1.31804 20.7795 1.24407 20.4658C1.1701 20.1522 1.18497 19.8241 1.28701 19.5184L2.6076 15.5576C2.83951 14.8609 2.97655 14.4507 3.16151 14.0607C3.38129 13.6007 3.64803 13.1695 3.96172 12.767C4.22622 12.4277 4.53193 12.122 5.05135 11.6026L14.1421 2.51183ZM4.21664 19.9535L6.93926 19.045C7.6973 18.792 8.0193 18.6837 8.31926 18.5409C8.68471 18.3659 9.02747 18.1541 9.34755 17.9055C9.60918 17.7005 9.85068 17.4618 10.4161 16.8964L17.6707 9.64183C16.676 9.28937 15.7732 8.71823 15.0286 7.97049C14.2815 7.2257 13.711 6.32283 13.3591 5.32837L6.10455 12.583C5.53914 13.1474 5.29955 13.388 5.09543 13.6505C4.84626 13.97 4.63447 14.3127 4.46005 14.6788C4.31726 14.9788 4.20897 15.3008 3.95597 16.0588L3.04747 18.7834L4.21664 19.9535ZM14.5235 4.16208C14.5571 4.32978 14.6117 4.55787 14.7046 4.82333C14.985 5.6255 15.4437 6.35359 16.0463 6.95274C16.6452 7.55519 17.3729 8.01392 18.1748 8.29441C18.4412 8.38737 18.6693 8.44199 18.837 8.47553L19.4714 7.84112C20.04 7.26856 20.3584 6.49398 20.357 5.68708C20.3556 4.88017 20.0344 4.10672 19.4639 3.53615C18.8933 2.96558 18.1198 2.64441 17.3129 2.643C16.506 2.64159 15.7314 2.96005 15.1589 3.52862L14.5235 4.16208Z" fill="black"/>
</svg>
