<svg width="30" height="23" viewBox="0 0 30 23" fill="none" xmlns="http://www.w3.org/2000/svg">
<path d="M8.36364 3.65909V10.4545H18.385L14.9428 7.01173C14.755 6.81408 14.6519 6.55088 14.6554 6.27827C14.6589 6.00566 14.7687 5.74519 14.9615 5.55241C15.1543 5.35962 15.4147 5.24977 15.6874 5.24628C15.96 5.24279 16.2232 5.34594 16.4208 5.53372L21.6481 10.761C21.844 10.957 21.9541 11.2228 21.9541 11.5C21.9541 11.7772 21.844 12.043 21.6481 12.239L16.4208 17.4663C16.2232 17.6541 15.96 17.7572 15.6874 17.7537C15.4147 17.7502 15.1543 17.6404 14.9615 17.4476C14.7687 17.2548 14.6589 16.9943 14.6554 16.7217C14.6519 16.4491 14.755 16.1859 14.9428 15.9883L18.385 12.5455H8.36364V19.3409C8.36467 20.311 8.75052 21.2411 9.4365 21.9271C10.1225 22.6131 11.0526 22.999 12.0227 23H25.6136C26.5838 22.999 27.5139 22.6131 28.1999 21.9271C28.8858 21.2411 29.2717 20.311 29.2727 19.3409V3.65909C29.2717 2.68896 28.8858 1.75886 28.1999 1.07287C27.5139 0.386881 26.5838 0.00103776 25.6136 0H12.0227C11.0526 0.00103776 10.1225 0.386881 9.4365 1.07287C8.75052 1.75886 8.36467 2.68896 8.36364 3.65909ZM1.04545 10.4545C0.768183 10.4545 0.502267 10.5647 0.306206 10.7608C0.110146 10.9568 0 11.2227 0 11.5C0 11.7773 0.110146 12.0432 0.306206 12.2392C0.502267 12.4353 0.768183 12.5455 1.04545 12.5455H8.36364V10.4545H1.04545Z" fill="#313131"/>
</svg>
