<svg width="32" height="32" viewBox="0 0 32 32" fill="none" xmlns="http://www.w3.org/2000/svg">
<path d="M31.1372 13.9185C31.1365 13.9177 31.1358 13.917 31.135 13.9163L18.0816 0.863281C17.5252 0.306641 16.7854 0 15.9986 0C15.2117 0 14.472 0.306396 13.9153 0.863037L0.868685 13.9094C0.864291 13.9138 0.859896 13.9185 0.855501 13.9229C-0.287076 15.072 -0.285123 16.9365 0.861117 18.0828C1.3848 18.6067 2.07645 18.9102 2.81595 18.9419C2.84598 18.9448 2.87625 18.9463 2.90677 18.9463H3.42703V28.5525C3.42703 30.4534 4.97367 32 6.87503 32H11.982C12.4995 32 12.9195 31.5803 12.9195 31.0625V23.5312C12.9195 22.6638 13.625 21.9583 14.4925 21.9583H17.5047C18.3721 21.9583 19.0777 22.6638 19.0777 23.5312V31.0625C19.0777 31.5803 19.4973 32 20.0152 32H25.1221C27.0235 32 28.5701 30.4534 28.5701 28.5525V18.9463H29.0525C29.8391 18.9463 30.5789 18.6399 31.1358 18.0833C32.2832 16.9351 32.2837 15.0674 31.1372 13.9185V13.9185Z" fill="#B1B1B1"/>
</svg>
