<svg width="24" height="24" viewBox="0 0 24 24" fill="none" xmlns="http://www.w3.org/2000/svg">
<path d="M12 14C12.55 14 13.021 13.8043 13.413 13.413C13.805 13.0217 14.0007 12.5507 14 12C13.9993 11.4493 13.8037 10.9787 13.413 10.588C13.0223 10.1973 12.5513 10.0013 12 10C11.4487 9.99867 10.978 10.1947 10.588 10.588C10.198 10.9813 10.002 11.452 10 12C9.998 12.548 10.194 13.019 10.588 13.413C10.982 13.807 11.4527 14.0027 12 14ZM8 18H16V17.425C16 17.025 15.8917 16.6583 15.675 16.325C15.4583 15.9917 15.1583 15.7417 14.775 15.575C14.3417 15.3917 13.8957 15.25 13.437 15.15C12.9783 15.05 12.4993 15 12 15C11.5007 15 11.0217 15.05 10.563 15.15C10.1043 15.25 9.65833 15.3917 9.225 15.575C8.84167 15.7417 8.54167 15.9917 8.325 16.325C8.10833 16.6583 8 17.025 8 17.425V18ZM18 22H6C5.45 22 4.97933 21.8043 4.588 21.413C4.19667 21.0217 4.00067 20.5507 4 20V4C4 3.45 4.196 2.97933 4.588 2.588C4.98 2.19667 5.45067 2.00067 6 2H13.175C13.4417 2 13.696 2.05 13.938 2.15C14.18 2.25 14.3923 2.39167 14.575 2.575L19.425 7.425C19.6083 7.60833 19.75 7.821 19.85 8.063C19.95 8.305 20 8.559 20 8.825V20C20 20.55 19.8043 21.021 19.413 21.413C19.0217 21.805 18.5507 22.0007 18 22Z" fill="#FF7676"/>
</svg>
