<svg width="13" height="13" viewBox="0 0 13 13" fill="none" xmlns="http://www.w3.org/2000/svg">
<path fill-rule="evenodd" clip-rule="evenodd" d="M7.99361 1.41963C8.46927 0.943978 9.11439 0.676758 9.78707 0.676758C10.4597 0.676758 11.1049 0.943978 11.5805 1.41963C12.0562 1.89529 12.3234 2.54041 12.3234 3.21309C12.3234 3.88577 12.0562 4.53089 11.5805 5.00655L6.44228 10.1448C6.1487 10.4384 5.97645 10.6106 5.78361 10.7607C5.55684 10.9383 5.31309 11.0891 5.05236 11.213C4.83245 11.3175 4.60061 11.395 4.20736 11.526L2.40253 12.1273L1.96811 12.2725C1.79534 12.3301 1.60991 12.3385 1.43262 12.2967C1.25534 12.2549 1.0932 12.1646 0.964404 12.0358C0.835604 11.907 0.745233 11.7448 0.703423 11.5675C0.661613 11.3903 0.670019 11.2048 0.727697 11.0321L1.47411 8.79334C1.6052 8.39955 1.68265 8.16772 1.7872 7.94726C1.91142 7.68726 2.06218 7.44351 2.23949 7.21601C2.38899 7.02426 2.56178 6.85147 2.85536 6.55788L7.99361 1.41963ZM2.38357 11.278L3.92245 10.7645C4.35091 10.6215 4.5329 10.5603 4.70245 10.4795C4.909 10.3806 5.10274 10.2609 5.28365 10.1204C5.43153 10.0045 5.56803 9.86963 5.88761 9.55005L9.98803 5.44963C9.42584 5.25042 8.91551 4.9276 8.49466 4.50497C8.07241 4.084 7.74997 3.57368 7.55107 3.01159L3.45065 7.11201C3.13107 7.43105 2.99565 7.56701 2.88028 7.71542C2.73945 7.89598 2.61974 8.08972 2.52115 8.29663C2.44045 8.46617 2.37924 8.64817 2.23624 9.07663L1.72274 10.6166L2.38357 11.278ZM8.2092 2.35238C8.22815 2.44717 8.25903 2.57609 8.31157 2.72613C8.47003 3.17953 8.72932 3.59106 9.0699 3.92972C9.4084 4.27023 9.81974 4.52951 10.2729 4.68805C10.4235 4.74059 10.5524 4.77147 10.6472 4.79042L11.0058 4.43184C11.3272 4.10822 11.5072 3.67042 11.5064 3.21434C11.5056 2.75826 11.3241 2.32109 11.0016 1.9986C10.6791 1.6761 10.2419 1.49457 9.78582 1.49378C9.32975 1.49298 8.89194 1.67298 8.56832 1.99434L8.2092 2.35238Z" fill="black"/>
</svg>
