<svg width="44" height="44" viewBox="0 0 44 44" fill="none" xmlns="http://www.w3.org/2000/svg">
<path d="M39.2992 13.9076L31.9695 6.53761C30.5908 5.15161 28.1873 5.13694 26.7812 6.52661C26.4218 6.88594 26.1395 7.32594 26.0148 7.67977C24.8177 10.1768 23.5325 11.7406 21.8825 12.6793L21.4847 12.8718C19.71 13.7609 17.2955 14.6666 12.8332 14.6666C12.3455 14.6678 11.8774 14.7607 11.4288 14.9453C10.5324 15.3216 9.81988 16.0355 9.44517 16.9326C9.07987 17.8288 9.07987 18.8323 9.44517 19.7284C9.63584 20.1849 9.9035 20.5919 10.2427 20.9219L16.1735 26.8528L9.1665 36.6666L18.9785 29.6596L24.8947 35.5758C25.2357 35.9223 25.639 36.1973 26.0973 36.3843C26.5415 36.5716 27.0187 36.6681 27.5008 36.6681C27.9828 36.6681 28.46 36.5716 28.9042 36.3843C29.3496 36.204 29.7543 35.9362 30.0944 35.5967C30.4345 35.2572 30.703 34.853 30.8842 34.4079C31.073 33.9643 31.1683 33.4784 31.1683 32.9999C31.1683 28.5339 32.074 26.1213 32.9613 24.3448C33.8707 22.5261 35.4712 21.1401 38.0103 19.9191C38.509 19.7284 38.9435 19.4492 39.3138 19.0813C39.9937 18.391 40.3736 17.4603 40.3708 16.4914C40.3681 15.5226 39.9829 14.594 39.2992 13.9076ZM29.6778 22.7094C28.1763 25.7216 27.4998 28.8878 27.487 32.9834L12.8332 18.3333C16.7547 18.3333 19.8255 17.7191 22.7258 16.3459L23.1567 16.1534C25.7215 14.8719 27.6813 12.6829 29.368 9.12444L36.562 16.5513C33.1465 18.1884 30.9593 20.1446 29.6778 22.7094Z" fill="black" fill-opacity="0.47"/>
</svg>
