<svg width="36" height="36" viewBox="0 0 36 36" fill="none" xmlns="http://www.w3.org/2000/svg">
<path d="M28.5 6.00006H22.23C21.9229 5.12322 21.3508 4.36349 20.593 3.82599C19.8352 3.28848 18.9291 2.99976 18 2.99976C17.0709 2.99976 16.1648 3.28848 15.407 3.82599C14.6492 4.36349 14.0771 5.12322 13.77 6.00006H7.5C6.70508 6.00243 5.9434 6.31927 5.3813 6.88136C4.81921 7.44346 4.50237 8.20514 4.5 9.00006V30.0001C4.50237 30.795 4.81921 31.5567 5.3813 32.1188C5.9434 32.6809 6.70508 32.9977 7.5 33.0001H28.5C29.2949 32.9977 30.0566 32.6809 30.6187 32.1188C31.1808 31.5567 31.4976 30.795 31.5 30.0001V9.00006C31.4976 8.20514 31.1808 7.44346 30.6187 6.88136C30.0566 6.31927 29.2949 6.00243 28.5 6.00006ZM18 6.00006C18.2967 6.00006 18.5867 6.08803 18.8334 6.25286C19.08 6.41768 19.2723 6.65195 19.3858 6.92603C19.4994 7.20012 19.5291 7.50172 19.4712 7.7927C19.4133 8.08367 19.2704 8.35094 19.0607 8.56072C18.8509 8.7705 18.5836 8.91336 18.2926 8.97124C18.0017 9.02912 17.7001 8.99941 17.426 8.88588C17.1519 8.77235 16.9176 8.58009 16.7528 8.33341C16.588 8.08674 16.5 7.79673 16.5 7.50006C16.5012 7.1026 16.6596 6.72176 16.9407 6.44071C17.2217 6.15966 17.6025 6.00125 18 6.00006ZM15 13.5001L19.185 17.6911L22.965 13.9111L21 12.0001H27V18.0001L25.086 16.0336L19.188 21.9361L15 17.7451L11.121 21.6211L9 19.5001L15 13.5001ZM28.5 28.5001H7.5V25.5001H28.5V28.5001Z" fill="#B1B1B1"/>
</svg>
