<svg width="32" height="33" viewBox="0 0 32 33" fill="none" xmlns="http://www.w3.org/2000/svg">
<path d="M12.1602 12.54V11.54C11.6079 11.54 11.1602 11.9878 11.1602 12.54H12.1602ZM12.2877 12.54H13.2877C13.2877 11.9878 12.84 11.54 12.2877 11.54V12.54ZM19.8402 12.54V11.54C19.2879 11.54 18.8402 11.9878 18.8402 12.54H19.8402ZM19.9535 12.54H20.9535C20.9535 11.9878 20.5058 11.54 19.9535 11.54V12.54ZM12.2877 12.6458V13.6458C12.84 13.6458 13.2877 13.198 13.2877 12.6458H12.2877ZM12.1602 12.6458H11.1602C11.1602 13.198 11.6079 13.6458 12.1602 13.6458V12.6458ZM19.9535 12.6458V13.6458C20.5058 13.6458 20.9535 13.198 20.9535 12.6458H19.9535ZM19.8402 12.6458H18.8402C18.8402 13.198 19.2879 13.6458 19.8402 13.6458V12.6458ZM12.4202 19.9992C12.136 19.5257 11.5217 19.3723 11.0481 19.6565C10.5746 19.9407 10.4212 20.555 10.7054 21.0285L12.4202 19.9992ZM21.295 21.0285C21.5792 20.555 21.4258 19.9407 20.9522 19.6565C20.4787 19.3723 19.8644 19.5257 19.5802 19.9992L21.295 21.0285ZM27.8002 16.5C27.8002 23.2672 22.4884 28.7 16.0002 28.7V30.7C23.6505 30.7 29.8002 24.3133 29.8002 16.5H27.8002ZM16.0002 28.7C9.51202 28.7 4.2002 23.2672 4.2002 16.5H2.2002C2.2002 24.3133 8.34988 30.7 16.0002 30.7V28.7ZM4.2002 16.5C4.2002 9.73294 9.51202 4.30005 16.0002 4.30005V2.30005C8.34988 2.30005 2.2002 8.68683 2.2002 16.5H4.2002ZM16.0002 4.30005C22.4884 4.30005 27.8002 9.73294 27.8002 16.5H29.8002C29.8002 8.68683 23.6505 2.30005 16.0002 2.30005V4.30005ZM12.1602 13.54H12.2877V11.54H12.1602V13.54ZM19.8402 13.54H19.9535V11.54H19.8402V13.54ZM11.2877 12.54V12.6458H13.2877V12.54H11.2877ZM12.2877 11.6458H12.1602V13.6458H12.2877V11.6458ZM13.1602 12.6458V12.54H11.1602V12.6458H13.1602ZM18.9535 12.54V12.6458H20.9535V12.54H18.9535ZM19.9535 11.6458H19.8402V13.6458H19.9535V11.6458ZM20.8402 12.6458V12.54H18.8402V12.6458H20.8402ZM16.0002 22.1C14.5188 22.1 13.1903 21.2822 12.4202 19.9992L10.7054 21.0285C11.8018 22.8551 13.7506 24.1 16.0002 24.1V22.1ZM19.5802 19.9992C18.8101 21.2822 17.4816 22.1 16.0002 22.1V24.1C18.2498 24.1 20.1986 22.8551 21.295 21.0285L19.5802 19.9992Z" fill="black"/>
</svg>
