<svg width="24" height="24" viewBox="0 0 24 24" fill="none" xmlns="http://www.w3.org/2000/svg">
<path d="M15.7643 6.07819C16.97 6.77431 17.9731 7.77303 18.6746 8.97562C19.376 10.1782 19.7515 11.543 19.7639 12.9352C19.7763 14.3274 19.4251 15.6986 18.7452 16.9135C18.0652 18.1284 17.08 19.1448 15.8869 19.8623C14.6938 20.5797 13.3341 20.9734 11.9422 21.0044C10.5504 21.0354 9.1745 20.7026 7.95064 20.0389C6.72679 19.3752 5.69732 18.4037 4.96399 17.2203C4.23065 16.0368 3.81885 14.6825 3.76928 13.2912L3.76428 13.0062L3.76928 12.7212C3.81848 11.3419 4.22365 9.99887 4.94543 8.82253C5.6672 7.64618 6.68103 6.67656 7.88837 6.00792C9.09571 5.33928 10.4555 4.99435 11.8356 5.00667C13.2156 5.01898 14.5691 5.38811 15.7643 6.07819ZM11.7643 9.00619C11.4991 9.00619 11.2447 9.11155 11.0572 9.29909C10.8696 9.48662 10.7643 9.74098 10.7643 10.0062V13.0062L10.7713 13.1232C10.7999 13.3664 10.9169 13.5907 11.0999 13.7535C11.2829 13.9162 11.5193 14.0062 11.7643 14.0062H13.7643L13.8813 13.9992C14.1245 13.9705 14.3488 13.8536 14.5116 13.6706C14.6743 13.4875 14.7642 13.2511 14.7643 13.0062L14.7573 12.8892C14.7286 12.6459 14.6117 12.4217 14.4287 12.2589C14.2456 12.0961 14.0092 12.0062 13.7643 12.0062H12.7643V10.0062L12.7573 9.88919C12.7286 9.64594 12.6117 9.42167 12.4287 9.25891C12.2456 9.09615 12.0092 9.00623 11.7643 9.00619Z" fill="#FF7676"/>
<path d="M6.17631 3.19716C6.38197 3.04444 6.63839 2.97646 6.89269 3.00725C7.14699 3.03804 7.37978 3.16525 7.54305 3.36263C7.70632 3.56001 7.78762 3.81253 7.77017 4.06809C7.75273 4.32366 7.63788 4.56278 7.44931 4.73616L7.35231 4.81616L4.60231 6.81615C4.39673 6.97127 4.13923 7.04109 3.88345 7.01108C3.62767 6.98106 3.39333 6.85352 3.22924 6.65502C3.06516 6.45652 2.98398 6.20237 3.00262 5.94551C3.02127 5.68865 3.13829 5.44888 3.32931 5.27615L3.42631 5.19616L6.17631 3.19716ZM15.9553 3.41816C16.0985 3.22118 16.3087 3.08324 16.5464 3.03021C16.7841 2.97719 17.033 3.01273 17.2463 3.13016L17.3523 3.19716L20.1023 5.19715C20.308 5.34674 20.4489 5.56906 20.4965 5.81888C20.544 6.06871 20.4946 6.32727 20.3583 6.54195C20.222 6.75663 20.009 6.91131 19.7626 6.97451C19.5163 7.03771 19.2552 7.00469 19.0323 6.88215L18.9263 6.81516L16.1763 4.81516C16.0701 4.73787 15.9802 4.64043 15.9117 4.5284C15.8432 4.41637 15.7974 4.29194 15.777 4.16222C15.7566 4.0325 15.7619 3.90002 15.7926 3.77235C15.8234 3.64468 15.878 3.52433 15.9553 3.41816Z" fill="#FF7676"/>
</svg>
