<svg width="14" height="13" viewBox="0 0 14 13" fill="none" xmlns="http://www.w3.org/2000/svg">
<path d="M11.5 4.625L10.87 9.87375C10.7747 10.6694 10.7275 11.0669 10.51 11.3675C10.3192 11.6321 10.0387 11.8437 9.70375 11.9756C9.3235 12.125 8.845 12.125 7.885 12.125H6.115C5.15575 12.125 4.6765 12.125 4.29625 11.975C3.96104 11.8432 3.68021 11.6316 3.48925 11.3669C3.27325 11.0669 3.22525 10.6694 3.12925 9.87375L2.5 4.625M8.125 8.6875V5.5625M5.875 8.6875V5.5625M1.375 3.0625H4.83625M4.83625 3.0625L5.12575 1.3925C5.20975 1.08875 5.51275 0.875 5.86075 0.875H8.13925C8.48725 0.875 8.7895 1.08875 8.87425 1.3925L9.16375 3.0625M4.83625 3.0625H9.16375M9.16375 3.0625H12.625" stroke="black" stroke-linecap="round" stroke-linejoin="round"/>
</svg>
